# xmcd
#
# Track frame offsets:
#	150
#	12697
#	24330
#	37677
#	48395
#	67612
#	79000
#	90565
#	99102
#	112115
#	129740
#	147790
#	169822
#	180972
#	194767
#	207527
#	225272
#
# Disc length: 3191 seconds
#
# Revision: 0
# Processed by: cddbd v1.5.2PL0 Copyright (c) Steve Scherf et al.
# Submitted via: audiograbber 1.83.01
#
DISCID=d40c7511
DTITLE=Nina Simone - The Blues
DYEAR=1966
DGENRE=Blues
TTITLE0=Do I Move You?
TTITLE1=Day And Night
TTITLE2=In The Dark
TTITLE3=Real Real
TTITLE4=My Man's Gone Now
TTITLE5=Backlash Blues
TTITLE6=I Want A Little Sugar In My Bowl
TTITLE7=Buck
TTITLE8=Since I Fell For You
TTITLE9=The House Of The Rising Sun
TTITLE10=Blues For Mama
TTITLE11=The Pusher
TTITLE12=Turn Me On
TTITLE13=Nobody's Fault But Mine
TTITLE14=Go To Hell
TTITLE15=I Shall Be Released
TTITLE16=Gin House Blues
EXTD=
EXTT0=
EXTT1=
EXTT2=
EXTT3=
EXTT4=
EXTT5=
EXTT6=
EXTT7=
EXTT8=
EXTT9=
EXTT10=
EXTT11=
EXTT12=
EXTT13=
EXTT14=
EXTT15=
EXTT16=
PLAYORDER=
